<?xml version="1.0" encoding="UTF-8"?>
<svg id="Layer_1" xmlns="http://www.w3.org/2000/svg" version="1.1" viewBox="0 0 64 64">
  <!-- Generator: Adobe Illustrator 30.3.0, SVG Export Plug-In . SVG Version: 2.1.3 Build 182)  -->
  <defs>
    <style>
      .st0 {
        fill: #d4b483;
      }
    </style>
  </defs>
  <path class="st0" d="M59.13,49.94c-.17,2.66-2.06,4.6-4.66,4.98l-44.81-.03c-2.68,0-4.83-2.48-4.8-5.12l46.8-.03c1.36,0,2.24-1.31,2.27-2.43.03-1.18-.87-2.54-2.27-2.54l-42.14-.07c-2.39,0-4.62-2.3-4.62-4.61v-16.24c0-2.36,2.34-4.58,4.77-4.58l36.57-.03c1.45,0,2.46,1.37,2.45,2.6,0,1.38-1.07,2.6-2.57,2.6l-33.86.02c-1.45,0-2.29,1.41-2.28,2.67l.05,10.31c0,.98,1.09,2.12,2.13,2.12l42.17.07c2.61,0,4.74,2.43,4.75,4.84l.03,5.48Z"/>
  <path class="st0" d="M18.08,29.4h33.66c1.06-.01,2.16-1.13,2.16-2.13v-10.87c.01-.92-.89-1.89-1.86-2.12l-47.17-.02c-.06-2.63,2.1-5.17,4.81-5.17h44.53c2.57,0,4.88,2.33,4.88,4.83v15.81c0,2.71-2.44,4.87-5.12,4.87H18.03c-1.53.01-2.64-1.21-2.64-2.57,0-1.46,1.06-2.63,2.69-2.63Z"/>
</svg>